# xmcd CD database file
#
# Track frame offsets:
#	150
#	19283
#	40827
#	63939
#	88892
#	108658
#	127128
#	148423
#	179615
#	195152
#	219294
#	243395
#
# Disc length: 3624 seconds
#
# Revision: 4
# Processed by: cddbd v1.5.2PL0 Copyright (c) Steve Scherf et al.
# Submitted via: CDex 1.70beta2
#
DISCID=b40e260c
DTITLE=LOUDNESS - THE EVERLASTING
DYEAR=2009
DGENRE=Heavy Metal
TTITLE0=HIT THE RAILS
TTITLE1=FLAME OF ROCK
TTITLE2=I WONDER
TTITLE3=THE EVERLASTING
TTITLE4=LIFE GOES ON
TTITLE5=LET IT ROCK
TTITLE6=CRYSTAL MOON
TTITLE7=CHANGE
TTITLE8=ROCK INTO THE NIGHT
TTITLE9=I'M IN PAIN
TTITLE10=THUNDER BURN
TTITLE11=DESPERATE RELIGION
EXTD=YEAR: 2009
EXTT0=
EXTT1=
EXTT2=
EXTT3=
EXTT4=
EXTT5=
EXTT6=
EXTT7=
EXTT8=
EXTT9=
EXTT10=
EXTT11=
PLAYORDER=
